<svg id="Layer_1" data-name="Layer 1" xmlns="http://www.w3.org/2000/svg" viewBox="0 0 1080 1080"><path d="M788.58,727.11c-8.89,29.6-17.13,58.1-26.13,86.36-3.19,10-8,19.54-12.47,29.12-4.57,9.84-10.45,12.79-17.58,9.46s-8.74-9.9-4.15-19.38c17.14-35.36,29.39-72.41,34.39-111.28,3.08-23.84,2.56-48.17,3.34-72.29.6-18.52.13-37.08,1.15-55.57,3.78-68.48-23.4-124.35-72.86-168.84-65.41-58.83-142.42-76.56-226.08-48.48C385,404.12,333.78,463.53,314.53,549.53c-1.93,8.61-2.17,17.76-2,26.63.87,45.32-1.77,91.15,4.07,135.85,13.53,103.72,53.75,192.53,155.68,239.29,19.88,9.11,42.07,13.29,63.38,19.06,4.45,1.2,9.81-.26,14.62-1.15,61-11.39,111.22-40.69,149.18-90.21.2-.26.42-.51.63-.77,6.75-8.53,12.86-10.29,19.2-5.54s6.6,11.33.19,19.87c-25.28,33.71-56.29,61.12-95.12,77.45-25.07,10.54-51.88,17.25-78.33,24-8.06,2.07-17.68-.64-26.33-2.43C421.89,971.25,356.79,912,320.2,820.69c-10.74-26.8-16.58-55.58-24.62-83.46-.9-3.14-1.53-6.35-2.25-9.37-58.17-7.08-88.13-73.9-66.47-132.23A86.61,86.61,0,0,0,232.13,568c1-44.64.52-89.32,2.09-133.93.95-27,9.38-52.58,20.2-77.28,3.19-7.28,8.35-11.61,16.41-8.13s8.79,10.11,5.49,17.45c-16.08,35.74-21.11,73.39-20.24,112.24.56,25.12.1,50.26.1,75.69l35.3-11.8c1.22-4.67,2.77-11.35,4.68-17.92C306.5,488.89,323.51,457,348,429.38c4.4-5,5.27-9.1,2.82-15-2.54-6.08-4.3-12.48-6.42-18.74-2.49-7.37-.84-13.54,6.69-16.22,8-2.87,13.32,1.19,16,8.92,1.62,4.68,3.19,9.37,4.81,14.12,111.85-83.69,223.48-83.86,336.08,0,1.65-4.86,3.22-10.1,5.21-15.19,2.83-7.25,8.27-10.58,15.75-7.81,7,2.59,10.16,9.17,6.6,15.28-12,20.64-4.07,35.42,9.72,52.09,20.84,25.19,33.21,55.38,40.94,87.26.77,3.16,1.59,6.32,2,8.12l34.71,11.54c-.09.08.34-.11.33-.3-1.07-44.58,1.65-89.66-4.07-133.63C806.73,324,722.12,244.15,625.9,232.13c-6.56-.82-13.16-1.23-19.73-2-7.49-.89-12.85-4.67-12.27-12.72.56-7.85,5.87-11.89,13.69-10.89,19.61,2.51,39.16,5.45,58.73,8.22,5.81-44.19-56.93-101.83-115.54-105.52-86.19-5.43-136.39,61.44-137.61,106.43,14.5-2.64,28.94-5.41,43.43-7.84a151.19,151.19,0,0,1,15.8-1.36c7.92-.5,13.11,3.3,13.56,11.12.46,8-5,11.58-12.46,12.62-13.4,1.88-27,2.91-40.13,6-52.82,12.4-95.63,40.69-129,83.32-.61.78-1.21,1.58-1.83,2.35-6.68,8.36-13.15,10.28-19.23,5.72-6.3-4.74-6.27-11.38.16-19.92,25.37-33.66,57-59.68,95.19-77.54,6.08-2.84,8.7-6.11,9.4-13,7.14-71,66.18-126,138.55-131.41,76.3-5.66,142.28,39.64,161.27,109a9.87,9.87,0,0,1,.78,2.85c-1.05,22.52,12.77,32,30.84,42.6,82.25,48.31,124.71,121.6,127.8,216.89,1.28,39.34.1,78.75.41,118.13a47.47,47.47,0,0,0,3.45,16.11c15,39.47,12.28,76.59-14.88,110.13C823.88,716.72,807.56,725.63,788.58,727.11Zm-.33-24.78c29.83-3.83,49.93-35.86,47.6-74.69-1.86-30.9-22-57.44-44.41-57.58Q789.85,636.12,788.25,702.33ZM288.4,569.6c-25.28,2.32-44.09,29.93-44.6,63.8-.53,35.58,20,65.47,47.82,68.69C290.55,658.11,289.48,614.21,288.4,569.6Z"/><path d="M631.47,839.19c0,12.68-9.27,17-18.58,12.75a378.49,378.49,0,0,0-36.57-14.17,38.15,38.15,0,0,0-29.84,2c-3.17,1.55-8.12,2-11.28.64-24.08-10.2-45-.83-66,9.56-3.66,1.81-8.1,3.88-11.76,3.28-3.17-.52-7.59-4.3-8.15-7.26-.74-3.89.4-10.15,3.15-12.27,6.93-5.38,14.76-10.54,23.06-13,14.15-4.2,29.64-10.46,43.27-8.17,16.94,2.86,32.79-2.1,49-.34,19.5,2.12,38.58,6.31,55.11,17.64C626.9,832.58,629.64,837.13,631.47,839.19Z"/><path d="M418.15,528c20.32,4.34,43.23,8.78,65.88,14.27,11.17,2.71,14.69,8.83,12.06,16.71-2.41,7.23-8.76,9.24-19.11,5.89-34.65-11.21-69.6-14.85-105.27-4.92-9.43,2.62-15.92-.48-17.37-7.89-1.8-9.23,4-13.62,11.82-15.13C382.31,533.8,398.57,531.3,418.15,528Z"/><path d="M666,528.58c16.21,2.76,32.48,5.25,48.62,8.37,8,1.55,13.41,6.22,11.63,15.34-1.4,7.18-8.14,10.25-17.57,7.61-35.32-9.89-69.91-6.16-104.37,4.44-4.66,1.43-10.6,1.74-14.94,0-2.82-1.12-5.89-7.38-5.13-10.39,1-4,5-8.87,8.85-10.35C616.42,534.64,640.74,530.37,666,528.58Z"/><path d="M646.88,645.56c-21-.3-40.18-6.75-57.88-17.86-6.74-4.23-10.17-10-5.62-17.41s11.16-7.2,18-3c30,18.24,60,20.48,90.14.15,6.37-4.3,12.84-3.91,17.24,2.86s1.78,12.7-4.41,17C687.13,639.32,668.12,646,646.88,645.56Z"/><path d="M429,645.57c-17.46.12-35.59-6.13-52.13-17.34-8.13-5.52-10.26-12.14-5.73-18.23,5.23-7,11.7-6.39,18.28-2,28.74,19.29,57.63,17.61,86.66.71.57-.33,1.11-.71,1.69-1,8.49-4.72,15.38-3.88,18.88,2.77,4.39,8.34.08,13.77-6.84,18C471.94,639.23,452.76,645.57,429,645.57Z"/><path d="M539.63,886.69c-11.8-1.06-23.31-2-34.78-3.17-7.53-.8-12.78-4.93-12.14-12.82.68-8.38,6.49-11.1,14.7-11q32.55.49,65.1,0C580.24,859.6,586,862,587,869.81c1.16,8.43-4.15,12.85-12.13,13.7C563.1,884.79,551.26,885.66,539.63,886.69Z"/><path d="M540.13,763.59c-10.32-5.46-20-9.73-28.56-15.66-2.37-1.64-3.14-9.29-1.37-12.22,2-3.4,7.58-4.86,11.82-6.65,1.12-.48,3.28.6,4.55,1.53,9.16,6.64,18.13,6,27.2-.21,1.29-.88,3.43-1.86,4.58-1.38,4,1.67,9.36,3.08,11.11,6.27s1.35,10.71-.93,12.31C559.79,753.73,549.9,758.28,540.13,763.59Z"/><path d="M452.38,437c-7.28-1.17-11.75-5.36-11.24-12.62s5.25-11.57,12.65-11c6.73.57,10.86,4.87,10.66,11.9C464.24,432.82,459.56,436.31,452.38,437Z"/><path d="M627.34,437c-7.54-1-12.07-4.73-11.94-12.27.12-7,4.42-11.18,11.17-11.41,7.36-.26,12,4.27,12.15,11.5S634.14,436,627.34,437Z"/><path d="M539.52,437c-7.14-1.13-11.63-5.07-11.29-12.5.32-6.84,4.7-11.1,11.54-11.11,7.33,0,11.87,4.43,11.83,11.8S546.85,436.29,539.52,437Z"/><path d="M363.64,715.37c-7.53-.39-12.09-4.25-12.17-11.59s4.58-11.72,11.84-11.71c6.77,0,11.26,4.15,11.54,11C375.14,710.46,370.84,714.52,363.64,715.37Z"/><path d="M717,691.85c7.2,1.18,11.83,5.07,11.34,12.49s-5.15,11.34-12.59,10.85c-7-.46-10.91-4.87-10.78-11.68C705.13,696.11,709.92,692.5,717,691.85Z"/><path d="M460.72,703.55c-.61,7.2-4.31,11.64-11.81,11.66s-11.76-4.6-11.7-11.77c0-6.73,4.4-11.17,11.23-11.37C455.72,691.86,459.92,696.05,460.72,703.55Z"/><path d="M630.39,715.37c-6.94-.83-11.26-4.62-11.07-12.15.18-7.09,4.65-11,11.32-11.16,7.29-.15,12,4.37,12,11.6S638.19,715,630.39,715.37Z"/><path d="M417.87,758.45c-.74,7.11-4.34,11.83-11.82,11.85-6.86,0-11.13-4-11.5-10.95-.4-7.45,3.78-12.07,11-12.42S416.88,751.18,417.87,758.45Z"/><path d="M685.51,758.73c-.9,7.49-4.84,11.83-12.27,11.55-7-.25-11-4.7-11.06-11.46-.06-7.31,4.37-11.94,11.67-11.89S685,751.57,685.51,758.73Z"/><path d="M507,481c-1.37,7.45-5.86,11.52-13,10.64s-11-5.81-10.05-13.22c.9-6.92,5.41-10.42,12.32-9.91C503.79,469.05,506.81,474,507,481Z"/><path d="M596.24,479.63c-.44,7.75-4.68,12.17-11.82,12.09s-11.64-4.67-11.41-12.08c.2-6.81,4.17-11,11.21-11.19C591.76,468.3,595.49,472.66,596.24,479.63Z"/></svg>