<svg width="24" height="27" viewBox="0 0 24 27" fill="none" xmlns="http://www.w3.org/2000/svg">
<path d="M24 9.34108C24 7.57812 23.3106 5.9204 22.0686 4.67317L17.4007 0L12.7328 4.66791C12.4223 4.9784 12.1539 5.30994 11.9171 5.66254L9.47528 3.2207L2.77075 9.91996C-0.923583 13.6143 -0.923583 19.6242 2.77075 23.3185C4.61791 25.1657 7.04396 26.0866 9.47001 26.0866C11.8961 26.0866 14.3221 25.1657 16.1693 23.3185C17.9586 21.5292 18.9427 19.1505 18.9427 16.6192C18.9427 16.3351 18.9269 16.0456 18.9058 15.7667C20.1004 15.4878 21.1845 14.8878 22.0634 14.009C23.3159 12.7618 24 11.104 24 9.34108ZM18.7585 14.7194C18.3954 12.9144 17.506 11.2514 16.1745 9.91996L13.6853 7.43603L12.9433 8.17805L15.4273 10.662C17.0166 12.2566 17.8954 14.3721 17.8954 16.6192C17.8954 18.8664 17.0218 20.9819 15.4273 22.5765C12.1434 25.8603 6.80189 25.8603 3.51804 22.5765C0.234185 19.2926 0.234185 13.9511 3.51804 10.6673L9.47001 4.71001L11.3803 6.62033C10.2857 9.05164 10.733 12.0145 12.7276 14.009C13.7538 15.0352 15.0589 15.6825 16.4956 15.8825L16.6376 14.8405C15.4325 14.6773 14.3379 14.13 13.4696 13.267C11.3067 11.104 11.3067 7.58338 13.4696 5.4152L17.3955 1.48931L21.3213 5.4152C22.3686 6.46245 22.9475 7.85703 22.9475 9.34108C22.9475 10.8251 22.3686 12.2197 21.3213 13.267C20.6004 13.9827 19.7268 14.4826 18.7585 14.7194Z" fill="#00B9C9"/>
</svg>
