<svg width="24" height="17" viewBox="0 0 24 17" fill="none" xmlns="http://www.w3.org/2000/svg">
<path d="M24 3.32861C24 1.62335 23.3662 0.801697 22.8337 0.413642C22.5894 0.228774 22.3044 0.101063 22.0011 0.0404032C21.6977 -0.0202563 21.384 -0.0122348 21.0844 0.063846C19.9594 0.375383 19.2525 1.70351 18.9581 2.37942C18.9075 2.3612 18.8588 2.34481 18.8063 2.33023C18.1875 2.15898 17.505 1.90027 16.7812 1.627C15.2812 1.05858 13.5731 0.415464 11.9944 0.415464C10.2506 0.415464 8.22937 1.18793 6.60563 1.80736C6.07875 2.00959 5.58 2.20088 5.16375 2.3357C5.12438 2.34845 5.08313 2.36667 5.04375 2.38306C4.74937 1.7108 4.03875 0.379027 2.91563 0.063846C2.61598 -0.0123746 2.30228 -0.0204668 1.99889 0.0401975C1.6955 0.100862 1.41058 0.22865 1.16625 0.413642C0.63375 0.801697 0 1.62335 0 3.32861C0 5.9539 3.33 11.0442 3.4725 11.2664C3.94688 12.6273 4.45687 13.7952 4.72875 14.0648C6.255 15.5696 9.77812 16.6154 11.9869 16.6154C14.1956 16.6154 17.7319 15.566 19.245 14.0648C19.5169 13.7952 20.0494 12.5982 20.5406 11.2282C20.8612 10.7545 24 5.87738 24 3.32861ZM21.2906 0.763438C21.4784 0.717652 21.6746 0.714545 21.8638 0.754356C22.0531 0.794167 22.2304 0.875826 22.3819 0.992991C22.9444 1.40291 23.25 2.23185 23.25 3.32861C23.25 4.6039 22.3238 6.6207 21.4444 8.24761C21.5462 7.83316 21.6089 7.41057 21.6319 6.98507C21.6637 5.56038 20.7937 3.62557 19.6106 2.74015C19.875 2.10068 20.4919 0.985704 21.2906 0.763438ZM0.75 3.32861C0.75 2.2355 1.0575 1.40291 1.61812 0.992991C1.76957 0.875702 1.94683 0.793966 2.13611 0.75415C2.32539 0.714334 2.52157 0.717512 2.70937 0.763438C3.50625 0.983882 4.12125 2.10432 4.39688 2.74561C3.28313 3.56727 2.4 5.24884 2.4 6.75369C2.42459 7.30668 2.50561 7.85593 2.64188 8.39336C1.73063 6.74094 0.75 4.64034 0.75 3.32861ZM18.7162 13.5638C17.5087 14.7644 14.25 15.8994 12 15.8994C9.72188 15.8994 6.5175 14.7844 5.27625 13.562C4.90125 13.1775 3.14625 8.46077 3.14625 6.75369C3.14625 5.24155 4.27125 3.39419 5.4075 3.02436C5.84062 2.88407 6.345 2.69096 6.88688 2.4778C8.4375 1.8857 10.3931 1.14238 12 1.14238C13.4381 1.14238 15 1.73266 16.515 2.30473C17.265 2.58347 17.9531 2.85128 18.6075 3.03347C18.7298 3.07024 18.847 3.12164 18.9562 3.1865C18.9718 3.19728 18.9881 3.20701 19.005 3.21565C19.995 3.82779 20.9212 5.59317 20.88 6.97414C20.8463 8.63384 19.0763 13.1976 18.7162 13.5638Z" fill="#00B9C9"/>
<path d="M16.0575 9.82343C16.0294 9.82343 13.245 10.319 12 10.319C10.755 10.319 7.97063 9.8289 7.94251 9.82343C7.84454 9.80604 7.74348 9.82717 7.66155 9.88218C7.57962 9.93718 7.52353 10.0216 7.50563 10.1168C7.48773 10.2119 7.50948 10.3101 7.56609 10.3897C7.6227 10.4694 7.70954 10.5238 7.80751 10.5412C7.92563 10.5613 10.6875 11.0441 12 11.0441C13.3125 11.0441 16.0744 10.5576 16.1925 10.5376C16.2905 10.5202 16.3773 10.4657 16.4339 10.3861C16.4905 10.3065 16.5123 10.2083 16.4944 10.1131C16.4765 10.0179 16.4204 9.93354 16.3385 9.87853C16.2565 9.82352 16.1555 9.80239 16.0575 9.81979V9.82343Z" fill="#00B9C9"/>
<path d="M16.0575 7.45502C16.0294 7.45502 13.245 7.95057 12 7.95057C10.755 7.95057 7.97063 7.46049 7.94251 7.45502C7.84454 7.43763 7.74348 7.45876 7.66155 7.51377C7.57962 7.56878 7.52353 7.65315 7.50563 7.74834C7.48773 7.84353 7.50948 7.94173 7.56609 8.02134C7.6227 8.10094 7.70954 8.15544 7.80751 8.17283C7.92563 8.19287 10.6875 8.67567 12 8.67567C13.3125 8.67567 16.0744 8.18923 16.1925 8.16919C16.2905 8.1518 16.3773 8.0973 16.4339 8.01769C16.4905 7.93808 16.5123 7.83989 16.4944 7.7447C16.4765 7.64951 16.4204 7.56513 16.3385 7.51012C16.2565 7.45512 16.1555 7.43398 16.0575 7.45138V7.45502Z" fill="#00B9C9"/>
<path d="M16.0575 5.08674C16.0294 5.08674 13.245 5.58228 12 5.58228C10.755 5.58228 7.97063 5.0922 7.94251 5.08674C7.84454 5.06934 7.74348 5.09047 7.66155 5.14548C7.57962 5.20049 7.52353 5.28487 7.50563 5.38005C7.48773 5.47524 7.50948 5.57344 7.56609 5.65305C7.6227 5.73266 7.70954 5.78715 7.80751 5.80455C7.92563 5.82459 10.6875 6.30738 12 6.30738C13.3125 6.30738 16.0744 5.82094 16.1925 5.8009C16.241 5.79229 16.2873 5.77448 16.3287 5.74848C16.3701 5.72249 16.4059 5.68882 16.4339 5.6494C16.462 5.60999 16.4817 5.56559 16.4921 5.51875C16.5025 5.47191 16.5032 5.42354 16.4944 5.37641C16.4855 5.32928 16.4672 5.2843 16.4404 5.24406C16.4137 5.20381 16.379 5.16907 16.3385 5.14184C16.2979 5.1146 16.2522 5.09539 16.204 5.08531C16.1558 5.07523 16.106 5.07448 16.0575 5.08309V5.08674Z" fill="#00B9C9"/>
</svg>
