<svg width="24" height="17" viewBox="0 0 24 17" fill="none" xmlns="http://www.w3.org/2000/svg">
<path d="M23 2.79348C22.9994 3.26894 22.8102 3.72475 22.474 4.06096C22.1378 4.39717 21.682 4.58632 21.2065 4.58696H17.5335C18.0091 4.58696 18.4653 4.77591 18.8017 5.11225C19.138 5.4486 19.327 5.90477 19.327 6.38043C19.327 6.85609 19.138 7.31227 18.8017 7.64862C18.4653 7.98496 18.0091 8.17391 17.5335 8.17391H16.663C17.1387 8.17391 17.5949 8.36287 17.9312 8.69921C18.2676 9.03555 18.4565 9.49173 18.4565 9.96739C18.4565 10.4431 18.2676 10.8992 17.9312 11.2356C17.5949 11.5719 17.1387 11.7609 16.663 11.7609H15.7065C16.1822 11.7609 16.6384 11.9498 16.9747 12.2862C17.311 12.6225 17.5 13.0787 17.5 13.5543C17.5 14.03 17.311 14.4862 16.9747 14.8225C16.6384 15.1589 16.1822 15.3478 15.7065 15.3478H8.17391C6.27127 15.3478 4.44656 14.592 3.10119 13.2466C1.75582 11.9013 1 10.0766 1 8.17391C1 6.27127 1.75582 4.44656 3.10119 3.10119C4.44656 1.75582 6.27127 1 8.17391 1H21.2065C21.6822 1 22.1384 1.18896 22.4747 1.5253C22.811 1.86164 23 2.31782 23 2.79348Z" stroke="#00B9C9" stroke-width="0.7" stroke-linecap="round" stroke-linejoin="round"/>
<path d="M10.0869 11.761C10.1267 11.7634 10.1667 11.7634 10.2065 11.761H10.0869Z" stroke="#281A3B" stroke-width="0.7" stroke-linecap="round" stroke-linejoin="round"/>
<path d="M15.7065 11.761H11.8804C10.8899 11.761 10.0869 12.564 10.0869 13.5545C10.0869 14.545 10.8899 15.3479 11.8804 15.3479H15.7065C16.697 15.3479 17.5 14.545 17.5 13.5545C17.5 12.564 16.697 11.761 15.7065 11.761Z" stroke="#00B9C9" stroke-width="0.7" stroke-linecap="round" stroke-linejoin="round"/>
<path d="M21.1657 9.06108C21.4192 9.06108 21.6248 8.85552 21.6248 8.60195C21.6248 8.34838 21.4192 8.14282 21.1657 8.14282C20.9121 8.14282 20.7065 8.34838 20.7065 8.60195C20.7065 8.85552 20.9121 9.06108 21.1657 9.06108Z" stroke="#00B9C9" stroke-width="0.7" stroke-linecap="round" stroke-linejoin="round"/>
<path d="M21.166 16.4239C20.7971 16.405 20.4494 16.246 20.1938 15.9793C19.9383 15.7126 19.7942 15.3584 19.791 14.9891C19.791 13.9345 21.166 12.3706 21.166 12.3706C21.166 12.3706 22.541 13.9345 22.541 14.9891C22.5378 15.3584 22.3938 15.7126 22.1382 15.9793C21.8826 16.246 21.5349 16.405 21.166 16.4239V16.4239Z" stroke="#00B9C9" stroke-width="0.7" stroke-linecap="round" stroke-linejoin="round"/>
<path d="M8.41309 4.58696V9.96978C8.41309 10.2052 8.45949 10.4383 8.54965 10.6558C8.63981 10.8732 8.77196 11.0708 8.93853 11.2371C9.1051 11.4035 9.30283 11.5353 9.52041 11.6252C9.73799 11.7151 9.97115 11.7612 10.2066 11.7609C10.442 11.7612 10.6751 11.7151 10.8927 11.6252C11.1103 11.5353 11.308 11.4035 11.4746 11.2371C11.6412 11.0708 11.7733 10.8732 11.8635 10.6558C11.9536 10.4383 12 10.2052 12 9.96978V2.83652C12.0007 2.59597 11.9539 2.35766 11.8624 2.13518C11.771 1.9127 11.6366 1.71042 11.4669 1.53988C11.2973 1.36935 11.0957 1.23389 10.8737 1.14126C10.6517 1.04863 10.4136 1.00063 10.1731 1" stroke="#00B9C9" stroke-width="0.7" stroke-linecap="round" stroke-linejoin="round"/>
<path d="M21.2066 4.587L19.5327 2.91309" stroke="#00B9C9" stroke-width="0.7" stroke-linecap="round" stroke-linejoin="round"/>
<path d="M22.9998 2.79348C22.9992 3.26894 22.81 3.72475 22.4738 4.06096C22.1376 4.39717 21.6818 4.58632 21.2063 4.58696H11.9998V2.83652C12.0004 2.59597 11.9537 2.35766 11.8622 2.13518C11.7707 1.9127 11.6363 1.71042 11.4667 1.53988C11.297 1.36935 11.0955 1.23389 10.8735 1.14126C10.6515 1.04863 10.4134 1.00063 10.1729 1H21.2063C21.682 1 22.1382 1.18896 22.4745 1.5253C22.8109 1.86164 22.9998 2.31782 22.9998 2.79348Z" stroke="#00B9C9" stroke-width="0.7" stroke-linecap="round" stroke-linejoin="round"/>
<path d="M17.5335 8.17387H12V4.58691H17.5335C18.0091 4.58691 18.4653 4.77587 18.8017 5.11221C19.138 5.44855 19.327 5.90473 19.327 6.38039V6.38039C19.327 6.85605 19.138 7.31223 18.8017 7.64857C18.4653 7.98492 18.0091 8.17387 17.5335 8.17387V8.17387Z" stroke="#00B9C9" stroke-width="0.7" stroke-linecap="round" stroke-linejoin="round"/>
<path d="M18.4565 9.96731C18.4559 10.4428 18.2668 10.8986 17.9305 11.2348C17.5943 11.571 17.1385 11.7602 16.6631 11.7608H10.2065C10.442 11.7611 10.6751 11.715 10.8927 11.6251C11.1103 11.5353 11.308 11.4034 11.4746 11.237C11.6412 11.0707 11.7733 10.8731 11.8635 10.6557C11.9536 10.4382 12 10.2051 12 9.9697V8.17383H16.6631C17.1387 8.17383 17.5949 8.36278 17.9312 8.69913C18.2676 9.03547 18.4565 9.49165 18.4565 9.96731Z" stroke="#00B9C9" stroke-width="0.7" stroke-linecap="round" stroke-linejoin="round"/>
</svg>
