<svg width="28" height="28" viewBox="0 0 28 28" fill="none" xmlns="http://www.w3.org/2000/svg">
<path d="M7.47462 12.7424L6.81787 9.44932L9.4542 6.81299L12.7473 7.46974L25.9196 20.6421C27.3729 22.0953 27.3729 24.4568 25.9196 25.9101C24.4664 27.3633 22.1049 27.3633 20.6516 25.9101L7.47462 12.7424Z" stroke="#00B9C9" stroke-miterlimit="10" stroke-linecap="round" stroke-linejoin="round"/>
<path d="M6.81297 9.4493L1.54497 4.1813C0.818345 3.45468 0.818345 2.27625 1.54497 1.54497C2.27159 0.818345 3.45002 0.818345 4.1813 1.54497L9.4493 6.81297" stroke="#00B9C9" stroke-miterlimit="10" stroke-linecap="round" stroke-linejoin="round"/>
<path d="M13.4038 13.4037C13.9488 12.8588 14.8338 12.8588 15.3788 13.4037L19.99 18.015C20.535 18.5599 20.535 19.4449 19.99 19.9899C19.445 20.5349 18.5601 20.5349 18.0151 19.9899L13.4038 15.3786C12.8589 14.8337 12.8589 13.9487 13.4038 13.4037Z" stroke="#00B9C9" stroke-miterlimit="10" stroke-linecap="round" stroke-linejoin="round"/>
<path d="M16.6972 18.0943C17.4689 18.0943 18.0945 17.4686 18.0945 16.6969C18.0945 15.9252 17.4689 15.2996 16.6972 15.2996C15.9254 15.2996 15.2998 15.9252 15.2998 16.6969C15.2998 17.4686 15.9254 18.0943 16.6972 18.0943Z" stroke="#00B9C9" stroke-miterlimit="10" stroke-linecap="round" stroke-linejoin="round"/>
<path d="M24.601 19.3333L19.333 24.6013" stroke="#00B9C9" stroke-miterlimit="10" stroke-linecap="round" stroke-linejoin="round"/>
<path d="M10.7675 11.6991C11.282 11.6991 11.6991 11.282 11.6991 10.7675C11.6991 10.253 11.282 9.83594 10.7675 9.83594C10.253 9.83594 9.83594 10.253 9.83594 10.7675C9.83594 11.282 10.253 11.6991 10.7675 11.6991Z" stroke="#00B9C9" stroke-miterlimit="10" stroke-linecap="round" stroke-linejoin="round"/>
<path d="M6.81283 4.18127L4.18115 6.81295" stroke="#00B9C9" stroke-miterlimit="10" stroke-linecap="round" stroke-linejoin="round"/>
</svg>
