<svg width="34" height="33" viewBox="0 0 34 33" fill="none" xmlns="http://www.w3.org/2000/svg">
<path d="M28.4522 20.4C29.7763 20.1171 30.911 19.3355 31.6473 18.1991C31.654 18.1887 31.6601 18.1782 31.6658 18.1673L32.4729 16.6101C34.4515 12.7925 34.5112 8.20439 32.6326 4.33664C31.6111 2.23593 31.6709 2.35113 31.6473 2.31455C30.1241 -0.0366974 26.9884 -0.707202 24.6366 0.81645C22.3517 2.29676 21.6704 5.27997 22.9922 7.58605H22.285C19.7903 7.58605 17.7607 9.61559 17.7607 12.1103V23.5541C17.7607 23.7641 17.9309 23.9343 18.1409 23.9343C18.351 23.9343 18.5211 23.7641 18.5211 23.5541V12.1102C18.5211 10.0349 20.2096 8.34636 22.285 8.34636H25.3646C25.7838 8.34636 26.1249 8.68746 26.1249 9.10674C26.1249 9.52601 25.7838 9.86712 25.3646 9.86712C23.7398 9.86712 23.8195 9.86712 22.19 9.86712C21.0055 9.86712 20.0419 10.8308 20.0419 12.0152V23.554C20.0419 23.764 20.2121 23.9342 20.4221 23.9342C20.6321 23.9342 20.8023 23.764 20.8023 23.554V12.0152C20.8023 11.25 21.4247 10.6275 22.19 10.6275H23.8406C23.78 11.3601 23.5408 12.0652 23.1385 12.6864C22.4022 13.8228 22.1526 15.1779 22.4356 16.502C23.0191 19.2328 25.7042 20.987 28.4522 20.4ZM23.7767 13.0998C24.2591 12.3551 24.5418 11.5073 24.6039 10.6275H25.3646C26.2031 10.6275 26.8853 9.94529 26.8853 9.10674C26.8853 8.26819 26.2031 7.58598 25.3646 7.58598H23.883C23.8481 7.52689 23.8125 7.46911 23.7767 7.4136C22.4817 5.41501 23.0512 2.74949 25.05 1.45449C27.0369 0.167085 29.6942 0.720795 30.9966 2.70874L31.9486 4.6687C33.7227 8.32142 33.6664 12.6547 31.7978 16.26L30.9993 17.8006C30.3733 18.7584 29.413 19.4171 28.2932 19.6563C25.9641 20.1537 23.6768 18.672 23.1791 16.343C22.9386 15.2175 23.1508 14.0657 23.7767 13.0998Z" fill="#00B9C9"/>
<path d="M11.7153 7.58605H11.0083C11.6298 6.50167 11.828 5.24331 11.5648 4.01157C11.2819 2.68744 10.5002 1.55272 9.36386 0.816445C7.01261 -0.706979 3.87657 -0.0370832 2.35314 2.31455C2.3447 2.32763 2.33702 2.34116 2.33026 2.35515L1.36777 4.33663C-0.510832 8.20446 -0.451143 12.7926 1.52752 16.6101L2.33467 18.1673C2.34029 18.1782 2.34645 18.1887 2.35314 18.1991C3.86592 20.5339 7.00767 21.2236 9.36386 19.6971C11.7096 18.1772 12.3817 15.0322 10.8619 12.6864C10.4596 12.0652 10.2203 11.36 10.1598 10.6275H11.8104C12.5756 10.6275 13.1981 11.25 13.1981 12.0152V31.9183C13.1981 32.1283 13.3683 32.2984 13.5783 32.2984C13.7883 32.2984 13.9585 32.1283 13.9585 31.9183V12.0153C13.9585 10.8308 12.9948 9.86719 11.8104 9.86719C10.1769 9.86719 10.2648 9.86719 8.6358 9.86719C8.21652 9.86719 7.87542 9.52608 7.87542 9.10681C7.87542 8.68754 8.21652 8.34643 8.6358 8.34643H11.7153C13.7907 8.34643 15.4792 10.0349 15.4792 12.1103V31.9183C15.4792 32.1283 15.6494 32.2984 15.8594 32.2984C16.0694 32.2984 16.2396 32.1283 16.2396 31.9183V12.1103C16.2396 9.61558 14.2101 7.58605 11.7153 7.58605ZM7.11503 9.10681C7.11503 9.94536 7.79725 10.6276 8.6358 10.6276H9.39648C9.45861 11.5073 9.74132 12.3552 10.2238 13.0999C11.5156 15.0938 10.9444 17.767 8.95044 19.059C6.96151 20.3476 4.29668 19.7826 3.00114 17.8008L2.20267 16.2602C0.334027 12.6548 0.277607 8.32164 2.05181 4.66884L3.00388 2.70888C4.29881 0.732575 6.95186 0.159704 8.95052 1.45463C10.9487 2.74918 11.519 5.41478 10.2239 7.41359C10.1875 7.46978 10.1522 7.52704 10.1172 7.58612H8.6358C7.79725 7.58605 7.11503 8.26826 7.11503 9.10681Z" fill="#00B9C9"/>
</svg>
