<svg width="26" height="27" viewBox="0 0 26 27" fill="none" xmlns="http://www.w3.org/2000/svg">
<path d="M7.04165 14.0832C3.15889 14.0832 0 11.1673 0 7.58324V1.62492C0 1.32576 0.242504 1.08325 0.541666 1.08325H2.70833C3.00749 1.08325 3.24999 1.32576 3.24999 1.62492C3.24999 1.92408 3.00749 2.16658 2.70833 2.16658H1.08333V7.58324C1.08333 10.57 3.75623 12.9999 7.04165 12.9999C10.3271 12.9999 13 10.57 13 7.58324V2.16658H11.375C11.0758 2.16658 10.8333 1.92408 10.8333 1.62492C10.8333 1.32576 11.0758 1.08325 11.375 1.08325H13.5416C13.8407 1.08325 14.0833 1.32576 14.0833 1.62492V7.58324C14.0834 11.1674 10.9245 14.0832 7.04165 14.0832Z" fill="#00B9C9"/>
<path d="M4.33317 3.25003C4.27564 3.25003 4.21785 3.24087 4.16189 3.22224L2.53689 2.68058C2.31573 2.60685 2.1665 2.39983 2.1665 2.1667V1.08337C2.1665 0.850233 2.31568 0.643263 2.53689 0.569488L4.16189 0.0278225C4.32699 -0.0272649 4.50861 0.000414201 4.64988 0.102301C4.79109 0.20408 4.87483 0.367609 4.87483 0.541701V2.70836C4.87483 2.88245 4.79114 3.04598 4.64988 3.14776C4.55649 3.21509 4.4454 3.25003 4.33317 3.25003ZM3.24984 1.77626L3.7915 1.9568V1.29321L3.24984 1.47374V1.77626Z" fill="#00B9C9"/>
<path d="M9.75022 3.24999C9.63793 3.24999 9.52689 3.21505 9.43345 3.14773C9.29224 3.04595 9.2085 2.88242 9.2085 2.70833V0.541664C9.2085 0.367573 9.29218 0.204044 9.43345 0.102265C9.57472 0.000431977 9.75634 -0.0272471 9.92144 0.0277861L11.5464 0.569452C11.7676 0.643172 11.9168 0.850197 11.9168 1.08333V2.16666C11.9168 2.39979 11.7676 2.60676 11.5464 2.68054L9.92144 3.2222C9.86554 3.24084 9.80769 3.24999 9.75022 3.24999ZM10.2918 1.29317V1.95682L10.8335 1.77628V1.47376L10.2918 1.29317Z" fill="#00B9C9"/>
<path d="M14.3541 26.5416C9.94992 26.5416 6.5 22.7348 6.5 17.8749V13.5416C6.5 13.2425 6.7425 13 7.04167 13C7.34083 13 7.58333 13.2425 7.58333 13.5416V17.8749C7.58333 22.1273 10.5575 25.4583 14.3541 25.4583C18.1508 25.4583 21.125 22.1273 21.125 17.8749V10.8333C21.125 10.5341 21.3675 10.2916 21.6666 10.2916C21.9657 10.2916 22.2083 10.5341 22.2083 10.8333V17.8749C22.2083 22.7348 18.7583 26.5416 14.3541 26.5416Z" fill="#00B9C9"/>
<path d="M21.6668 11.375C19.2774 11.375 17.3335 9.43109 17.3335 7.0417C17.3335 4.6523 19.2774 2.70837 21.6668 2.70837C24.0562 2.70837 26.0001 4.6523 26.0001 7.0417C26.0001 9.43109 24.0562 11.375 21.6668 11.375ZM21.6668 3.79171C19.8748 3.79171 18.4168 5.24965 18.4168 7.0417C18.4168 8.83374 19.8748 10.2917 21.6668 10.2917C23.4589 10.2917 24.9168 8.83374 24.9168 7.0417C24.9168 5.24965 23.4589 3.79171 21.6668 3.79171Z" fill="#00B9C9"/>
<path d="M21.6667 9.20832C20.472 9.20832 19.5 8.23636 19.5 7.04166C19.5 5.84696 20.472 4.875 21.6667 4.875C22.8614 4.875 23.8333 5.84696 23.8333 7.04166C23.8333 8.23636 22.8613 9.20832 21.6667 9.20832ZM21.6667 5.95833C21.0693 5.95833 20.5833 6.44431 20.5833 7.04166C20.5833 7.63901 21.0693 8.12499 21.6667 8.12499C22.264 8.12499 22.75 7.63901 22.75 7.04166C22.75 6.44431 22.264 5.95833 21.6667 5.95833Z" fill="#00B9C9"/>
</svg>
