<svg width="28" height="27" viewBox="0 0 28 27" fill="none" xmlns="http://www.w3.org/2000/svg">
<path d="M23.8924 9.86452L9.13134 24.7256C8.68984 25.1718 8.16518 25.5258 7.58746 25.7674C7.00975 26.009 6.39034 26.1333 5.76478 26.1333C5.13921 26.1333 4.51981 26.009 3.94209 25.7674C3.36437 25.5258 2.83972 25.1718 2.39822 24.7256C1.95504 24.2811 1.60339 23.7529 1.36345 23.1713C1.12351 22.5897 1 21.9661 1 21.3363C1 20.7065 1.12351 20.0829 1.36345 19.5012C1.60339 18.9196 1.95504 18.3914 2.39822 17.9469L19.231 1L27 8.82164L23.8924 9.86452Z" stroke="#00B9C9" stroke-linecap="round" stroke-linejoin="round"/>
<path d="M5.7666 14.4333C5.7666 14.4333 8.34993 12.4833 12.4833 14.4333C16.6166 16.3833 19.1999 14.4333 19.1999 14.4333" stroke="#00B9C9" stroke-linecap="round" stroke-linejoin="round"/>
</svg>
