<svg width="22" height="18" viewBox="0 0 22 18" fill="none" xmlns="http://www.w3.org/2000/svg">
<path d="M8.31064 18C8.20133 18.0007 8.09297 17.978 7.99177 17.9332C7.89057 17.8884 7.79853 17.8224 7.72092 17.739L0.245685 9.6407C0.167836 9.55705 0.106045 9.45753 0.0638775 9.34788C0.02171 9.23823 0 9.12062 0 9.00183C0 8.88305 0.02171 8.76544 0.0638775 8.65578C0.106045 8.54613 0.167836 8.44661 0.245685 8.36296L7.72092 0.264628C7.79837 0.180731 7.8903 0.11418 7.99149 0.0687749C8.09267 0.0233699 8.20112 1.76801e-09 8.31064 0C8.42016 -1.76801e-09 8.5286 0.0233699 8.62979 0.0687749C8.73097 0.11418 8.82291 0.180731 8.90035 0.264628C8.97779 0.348526 9.03922 0.448126 9.08113 0.557744C9.12305 0.667361 9.14462 0.784848 9.14462 0.903497C9.14462 1.02215 9.12305 1.13963 9.08113 1.24925C9.03922 1.35887 8.97779 1.45847 8.90035 1.54237L2.00652 9.00183L8.90035 16.4613C8.9782 16.545 9.03999 16.6445 9.08216 16.7541C9.12432 16.8638 9.14604 16.9814 9.14604 17.1002C9.14604 17.219 9.12432 17.3366 9.08216 17.4462C9.03999 17.5559 8.9782 17.6554 8.90035 17.739C8.82274 17.8224 8.7307 17.8884 8.6295 17.9332C8.52831 17.978 8.41995 18.0007 8.31064 18Z" fill="#242424"/>
<path d="M20.7699 9.90168H0.835953C0.615669 9.90168 0.404407 9.80688 0.248643 9.63813C0.0928786 9.46938 0.00537109 9.24051 0.00537109 9.00187C0.00537109 8.76322 0.0928786 8.53435 0.248643 8.3656C0.404407 8.19685 0.615669 8.10205 0.835953 8.10205H20.7699C20.9902 8.10205 21.2015 8.19685 21.3572 8.3656C21.513 8.53435 21.6005 8.76322 21.6005 9.00187C21.6005 9.24051 21.513 9.46938 21.3572 9.63813C21.2015 9.80688 20.9902 9.90168 20.7699 9.90168Z" fill="#242424"/>
</svg>
