<svg width="28" height="29" viewBox="0 0 28 29" fill="none" xmlns="http://www.w3.org/2000/svg">
<path d="M0 14.3673V13.7104C0.0312098 13.5192 0.0403522 13.325 0.0272359 13.1318C0.0133449 11.3414 0.430107 9.57399 1.24238 7.97846C1.78599 6.81399 2.49317 5.73315 3.3425 4.76871C4.48487 3.45536 5.86047 2.3648 7.39978 1.55215C8.63372 0.901426 9.95575 0.433618 11.3243 0.163412C11.6915 0.10338 12.0621 0.0669982 12.434 0.0544914C13.768 -0.0393084 15.1077 -0.011967 16.4368 0.136181C17.573 0.300819 18.6786 0.632288 19.718 1.11987C20.8134 1.60769 21.8427 2.23213 22.7814 2.97833C22.8729 3.0402 22.9497 3.12157 23.0061 3.21659C23.0423 3.35729 23.1124 3.48699 23.2103 3.59441C24.0908 4.68212 24.7613 5.92403 25.1879 7.25686C25.5458 8.26198 25.7745 9.30851 25.8686 10.3713C25.956 11.2218 25.9685 12.0783 25.9061 12.9309C25.8094 14.1088 25.5682 15.2702 25.1879 16.3892C24.5976 18.1268 23.6725 19.7318 22.4649 21.1136C21.1542 22.6241 19.5413 23.8428 17.7302 24.691C16.4278 25.2931 15.0394 25.6882 13.6151 25.8618C12.9474 25.9525 12.2736 25.9889 11.6 25.9708C10.2144 25.9424 8.83953 25.7201 7.51552 25.3104C6.2735 24.9156 5.09157 24.3521 4.00283 23.6358C3.86898 23.5415 3.74368 23.4355 3.62841 23.3192C3.50761 23.1948 3.35617 23.1044 3.18933 23.0571C2.8689 22.773 2.59852 22.437 2.38945 22.0632C1.27675 20.4768 0.515502 18.6712 0.156581 16.767C0.0607243 16.165 0.0208308 15.5553 0.0374364 14.946C0.0471822 14.7523 0.0346242 14.5581 0 14.3673Z" fill="#E24D4B"/>
<path d="M22.9169 3.25073C23.8987 4.02615 24.7592 4.94396 25.4697 5.97375C26.6941 7.67656 27.4967 9.64574 27.8115 11.7193C28.4922 16.2327 27.3179 20.2287 24.2239 23.595C22.2732 25.7205 19.7015 27.1761 16.8752 27.7544C16.3167 27.8873 15.7468 27.967 15.1733 27.9927C15.1222 27.9927 15.061 27.9927 15.0303 28.0438H13.0085C12.5286 27.9995 12.0486 28.0029 11.5721 27.9519C10.5697 27.8211 9.59031 27.5519 8.66189 27.152C7.23104 26.5863 5.90726 25.7805 4.74756 24.7693C4.23325 24.3214 3.75204 23.8368 3.30776 23.3193C3.22266 23.2206 3.13757 23.1253 3.20565 22.979C3.28724 22.9904 3.36268 23.0288 3.42009 23.0879C5.38242 24.5771 7.71361 25.5033 10.1629 25.7666C10.8404 25.8495 11.5228 25.8848 12.2052 25.8722C14.6089 25.7946 16.9523 25.1009 19.0109 23.8577C21.0695 22.6144 22.7743 20.8632 23.9618 18.7719C24.7302 17.4457 25.2688 15.9992 25.5548 14.4934C25.7595 13.4754 25.844 12.437 25.8067 11.3993C25.7336 9.18841 25.145 7.02513 24.0878 5.08196C23.7855 4.52107 23.4359 3.98701 23.0428 3.48559C22.9764 3.42311 22.9321 3.34065 22.9169 3.25073Z" fill="#D1403F"/>
<path d="M0 13.1083C0 13.0879 0.023828 13.0845 0.0442506 13.1083C0.0789139 13.3131 0.0637345 13.5233 0 13.721V13.1083Z" fill="#E98576"/>
<path d="M0.0442506 14.98H0.0204218L0 14.9595V14.3605C0.0651145 14.5603 0.0803084 14.7729 0.0442506 14.98Z" fill="#E98576"/>
<path d="M19.2571 20.814C18.9069 20.7655 18.5863 20.5913 18.3551 20.3239C16.9731 18.9351 15.581 17.5566 14.2059 16.1611C14.0289 15.9841 13.9472 16.0079 13.7838 16.1611C12.4064 17.5498 11.0233 18.9351 9.63461 20.3171C9.41016 20.5802 9.09561 20.75 8.75252 20.7935C8.40944 20.8369 8.06249 20.7508 7.77955 20.5519C7.63398 20.4461 7.51083 20.3125 7.41722 20.1588C7.3236 20.0051 7.26139 19.8344 7.23417 19.6565C7.20695 19.4786 7.21527 19.2971 7.25864 19.1225C7.30201 18.9478 7.37956 18.7835 7.48683 18.639C7.57117 18.5314 7.66211 18.429 7.75913 18.3327C9.12064 16.9712 10.4992 15.5858 11.8811 14.2209C12.0479 14.0575 12.0309 13.9758 11.8811 13.8227C10.4855 12.4385 9.09342 11.0475 7.70468 9.64966C7.44354 9.42333 7.27642 9.10758 7.23612 8.76437C7.19582 8.42116 7.28523 8.07527 7.48683 7.79461C7.70076 7.50602 8.02007 7.31368 8.37519 7.25948C8.73031 7.20529 9.09247 7.29364 9.38273 7.50529C9.50268 7.59382 9.61641 7.69049 9.72311 7.79461C11.0846 9.15611 12.4461 10.5176 13.8076 11.8791C13.9846 12.0595 14.0663 12.0357 14.2297 11.8791C15.5957 10.504 16.9788 9.12548 18.3789 7.74355C18.6038 7.48112 18.9182 7.31173 19.2611 7.26832C19.604 7.22491 19.9507 7.31059 20.2339 7.50869C20.3795 7.61449 20.5027 7.7481 20.5963 7.90179C20.6899 8.05548 20.7521 8.2262 20.7793 8.40409C20.8065 8.58197 20.7982 8.76349 20.7549 8.93814C20.7115 9.11279 20.6339 9.27712 20.5267 9.42161C20.4432 9.52998 20.3522 9.63234 20.2544 9.72795C18.8929 11.0895 17.5314 12.451 16.1528 13.8125C15.969 13.9929 15.9894 14.0848 16.1528 14.2516C17.5461 15.6289 18.9326 17.0131 20.3122 18.4041C20.5733 18.6299 20.7401 18.9454 20.7798 19.2882C20.8195 19.6311 20.7292 19.9763 20.5267 20.2558C20.3789 20.448 20.1852 20.5998 19.9633 20.6974C19.7414 20.795 19.4985 20.8351 19.2571 20.814Z" fill="white"/>
</svg>
