<svg width="20" height="20" viewBox="0 0 20 20" fill="none" xmlns="http://www.w3.org/2000/svg">
<g clip-path="url(#clip0_254_637)">
<path d="M10.6586 20H9.32833C9.0855 19.9683 8.8405 19.943 8.59775 19.9071C6.69601 19.6593 4.91121 18.8505 3.47092 17.584C0.778705 15.1912 -0.346742 12.1796 0.0924571 8.6105C0.317939 6.70652 1.12962 4.91976 2.41514 3.49753C4.94898 0.642228 8.14163 -0.472863 11.8938 0.181829C14.3854 0.604212 16.3956 1.91782 17.9455 3.91358C18.9325 5.18056 19.5858 6.67493 19.8458 8.25988C19.905 8.61683 19.9493 8.97792 20 9.337V10.6548C19.9873 10.7161 19.9704 10.7794 19.962 10.8427C19.9155 11.1912 19.8902 11.5418 19.8227 11.8861C19.4305 13.9737 18.3734 15.8785 16.8095 17.3158C15.4088 18.6444 13.6449 19.5266 11.7417 19.8501C11.3786 19.9071 11.0175 19.9472 10.6586 20ZM16.6659 15.7234C19.3497 12.7794 19.8838 7.38345 16.2077 3.72985C15.3431 2.86313 14.3068 2.18678 13.1655 1.74418C12.0242 1.30159 10.8029 1.10255 9.58017 1.15983C8.35733 1.2171 7.16006 1.52942 6.06507 2.07675C4.97007 2.62408 4.00159 3.39434 3.22175 4.33808C-0.0067838 8.21977 0.996191 13.2483 3.32733 15.7128C3.97768 13.4298 5.41564 11.8565 7.61797 10.961C6.87285 10.452 6.31032 9.71767 6.01283 8.86567C5.71534 8.01366 5.69852 7.08873 5.96484 6.22645C6.23116 5.36417 6.76661 4.60987 7.49272 4.0741C8.21884 3.53834 9.09742 3.24928 9.99975 3.24928C10.9021 3.24928 11.7807 3.53834 12.5068 4.0741C13.2329 4.60987 13.7684 5.36417 14.0347 6.22645C14.301 7.08873 14.2842 8.01366 13.9867 8.86567C13.6892 9.71767 13.1267 10.452 12.3816 10.961C13.4245 11.3542 14.3578 11.992 15.1032 12.8207C15.8487 13.6493 16.3846 14.6447 16.6659 15.7234ZM10.2215 18.8173C10.4897 18.7899 10.9922 18.7667 11.4884 18.6822C12.9772 18.4357 14.3748 17.8012 15.5404 16.8427C15.5699 16.8141 15.5928 16.7795 15.6077 16.7412C15.6227 16.7029 15.6292 16.6619 15.627 16.6209C15.4927 15.5683 15.0522 14.5784 14.3601 13.7741C13.6537 12.9309 12.7183 12.3105 11.6668 11.988C10.6154 11.6654 9.493 11.6545 8.4355 11.9566C7.37795 12.2587 6.4306 12.8608 5.70804 13.6901C4.98548 14.5193 4.51867 15.5403 4.36409 16.6294C4.36088 16.6682 4.36622 16.7072 4.37972 16.7437C4.39322 16.7802 4.41455 16.8132 4.44222 16.8406C6.06387 18.1458 7.91568 18.7983 10.2215 18.8237V18.8173ZM13.0298 7.48693C13.0319 6.88557 12.8554 6.29712 12.5228 5.79618C12.1902 5.29523 11.7163 4.90434 11.1613 4.67306C10.6062 4.44177 9.99508 4.38049 9.40525 4.49699C8.81533 4.61349 8.27337 4.90251 7.84792 5.32744C7.42247 5.75238 7.13272 6.29408 7.01542 6.8839C6.89812 7.47371 6.95853 8.08507 7.18902 8.6405C7.41949 9.19592 7.80964 9.67042 8.31003 10.0038C8.81042 10.3372 9.3985 10.5146 9.99975 10.5133C10.8007 10.5072 11.5673 10.1866 12.1342 9.62042C12.701 9.05433 13.0227 8.28808 13.0298 7.48693Z" fill="#242424"/>
</g>
<defs>
<clipPath id="clip0_254_637">
<rect width="20" height="20" fill="white"/>
</clipPath>
</defs>
</svg>
