<svg width="18" height="22" viewBox="0 0 18 22" fill="none" xmlns="http://www.w3.org/2000/svg">
<path d="M17 9C17 15.2222 9 20.5556 9 20.5556C9 20.5556 1 15.2222 1 9C1 6.87827 1.84285 4.84344 3.34315 3.34315C4.84344 1.84285 6.87827 1 9 1C11.1217 1 13.1566 1.84285 14.6569 3.34315C16.1571 4.84344 17 6.87827 17 9Z" stroke="#00B9C9" stroke-width="2" stroke-linecap="round" stroke-linejoin="round"/>
<path d="M9 11.6667C10.4728 11.6667 11.6667 10.4728 11.6667 9.00004C11.6667 7.52728 10.4728 6.33337 9 6.33337C7.52724 6.33337 6.33333 7.52728 6.33333 9.00004C6.33333 10.4728 7.52724 11.6667 9 11.6667Z" stroke="#00B9C9" stroke-width="2" stroke-linecap="round" stroke-linejoin="round"/>
</svg>
