<svg width="15" height="12" viewBox="0 0 15 12" fill="none" xmlns="http://www.w3.org/2000/svg">
<path d="M14.7882 11.0137L12.3618 9.10938C13.0968 8.35948 13.7166 7.44758 14.1719 6.4305C14.2166 6.32649 14.2532 6.14711 14.2532 6.03066C14.2532 5.91381 14.2166 5.73483 14.1719 5.63083C12.9001 2.73359 10.3834 0.791927 7.50223 0.791927C6.03303 0.791927 4.66088 1.30728 3.49808 2.19171L0.909923 0.120116C0.806771 0.0394202 0.684396 0 0.563428 0C0.39651 0 0.230741 0.0741448 0.120135 0.215743C-0.0718203 0.460858 -0.0292 0.815147 0.215503 1.00697L14.0729 11.8798C14.3191 12.0724 14.6724 12.0285 14.8628 11.7842C15.0766 11.5608 15.032 11.2062 14.7882 11.0137ZM9.24619 6.66317L7.33203 5.18168C7.41057 4.96099 7.4809 4.74733 7.4809 4.50785C7.4809 4.37919 7.4604 4.25593 7.42972 4.13736C7.46918 4.13689 7.48559 4.1322 7.502 4.1322C8.53609 4.1322 9.37748 4.97484 9.37748 6.01164C9.37748 6.24291 9.32355 6.45891 9.24619 6.66317ZM10.1558 7.37691C10.3715 6.96839 10.5028 6.50821 10.5028 6.01282C10.5028 4.3529 9.15945 3.00524 7.502 3.00524C6.74712 3.00524 6.06491 3.29167 5.53978 3.7542L4.41449 2.87141C5.3452 2.23115 6.4025 1.87827 7.502 1.87827C9.83416 1.87827 11.9844 3.46306 13.1191 5.98934C12.6957 6.9374 12.1248 7.73684 11.4637 8.38179L10.1558 7.37691ZM7.502 9.01571C7.81661 9.01571 8.11528 8.95365 8.40012 8.86364L7.09877 7.84179C6.54316 7.7197 6.08367 7.34639 5.83282 6.84865L4.51999 5.81795C4.5153 5.88369 4.50123 5.94473 4.50123 6.01047C4.50123 7.67039 5.84454 9.01571 7.502 9.01571ZM7.502 10.1427C5.16984 10.1427 3.0196 8.55788 1.88494 6.0316C2.13883 5.46295 2.44969 4.95089 2.79478 4.48531L1.90557 3.76594C1.48898 4.32331 1.1256 4.94079 0.831621 5.6111C0.786844 5.71464 0.729173 5.89308 0.729173 6.01047C0.729173 6.12732 0.765792 6.3063 0.810499 6.41031C2.08231 9.30754 4.59897 11.2492 7.48017 11.2492C8.54591 11.2492 9.56125 10.9794 10.4833 10.4946L9.47826 9.70597C8.86172 9.98771 8.19358 10.1427 7.502 10.1427Z" fill="#8F8F8F"/>
</svg>
