<svg width="12" height="15" viewBox="0 0 12 15" fill="none" xmlns="http://www.w3.org/2000/svg">
<path d="M5.55051 14.3715C5.33206 14.3344 5.0896 14.3082 4.86242 14.2601C4.08823 14.11 3.35159 13.8076 2.69533 13.3703C2.03906 12.9331 1.47626 12.3697 1.03963 11.7131C0.51787 10.9669 0.183671 10.1059 0.0653667 9.20313C-0.0609082 8.35571 -0.0037873 7.49106 0.23288 6.66763C0.469547 5.84419 0.880238 5.08115 1.43719 4.4301C2.22777 3.4676 3.31589 2.79521 4.53038 2.51871C6.03548 2.13935 7.62915 2.36109 8.97353 3.13692L9.09586 3.20463H9.13736L9.59392 2.74153L9.6682 2.66071L9.1898 2.22382L10.0221 1.38281L11.7915 3.15221L10.9614 3.9823L10.5245 3.49954L10.0876 3.93643C10.1164 3.96942 10.147 4.00078 10.1793 4.03036C11.0135 4.82314 11.5936 5.84569 11.8461 6.96844C12.0242 7.72115 12.048 8.50214 11.916 9.26428C11.6946 10.614 11.0334 11.8527 10.0352 12.7878C9.23369 13.5494 8.22675 14.0597 7.1386 14.2558C6.89176 14.3038 6.64273 14.3344 6.3937 14.3715H5.55051ZM5.99832 4.15269C5.18032 4.1416 4.37757 4.37442 3.69244 4.82145C3.0073 5.26848 2.47085 5.90945 2.15151 6.66262C1.80222 7.46697 1.71356 8.36051 1.89796 9.21782C2.08236 10.0751 2.53056 10.8532 3.17968 11.4428C3.8288 12.0324 4.64624 12.4039 5.51728 12.5053C6.38832 12.6067 7.26925 12.4327 8.03641 12.0079C8.69711 11.6507 9.24638 11.118 9.62372 10.4685C10.0011 9.81908 10.1918 9.07808 10.175 8.32716H5.99832V4.15269Z" fill="#242424"/>
<path d="M4.21875 0H7.79906V1.19271H6.61945V1.77158H5.41582V1.20582H4.21875V0Z" fill="#242424"/>
</svg>
