<svg width="17" height="17" viewBox="0 0 17 17" fill="none" xmlns="http://www.w3.org/2000/svg">
<path d="M17 6.28992C17 6.45992 16.9116 6.63 16.7348 6.8L13.0263 10.37L13.9043 15.5549C13.9111 15.5549 13.9145 15.64 13.9145 15.725C13.9145 15.895 13.8771 15.9799 13.8023 16.0649C13.7343 16.1499 13.6323 16.235 13.4955 16.235C13.3663 16.235 13.2302 16.235 13.0875 16.15L8.5 13.685L3.91289 16.15C3.76304 16.235 3.62678 16.235 3.50421 16.235C3.36116 16.235 3.25219 16.1499 3.1773 16.0649C3.10913 15.9799 3.07513 15.895 3.07513 15.725C3.07513 15.725 3.08193 15.6399 3.09553 15.5549L3.97417 10.37L0.255425 6.8C0.0851699 6.63 0 6.45992 0 6.28992C0 6.03492 0.19074 5.86492 0.572135 5.86492L5.7007 5.1L7.99935 0.425C8.12855 0.17 8.296 0 8.5 0C8.704 0 8.87145 0.17 9.00065 0.425L11.2991 5.1L16.4279 5.86492C16.8096 5.86492 17 6.03492 17 6.28992Z" fill="#F1C40F"/>
</svg>
