<svg width="28" height="28" viewBox="0 0 28 28" fill="none" xmlns="http://www.w3.org/2000/svg">
<path d="M13.9992 0C17.7197 0.00727373 21.285 1.48924 23.9106 4.11989C26.5363 6.75054 28.0073 10.3144 28 14.0274C27.9927 17.7404 26.5077 21.2985 23.8718 23.9189C21.2358 26.5392 17.6647 28.0072 13.9442 28C6.24306 28 -0.00968793 21.6824 1.12687e-05 13.9161C0.0247108 10.2234 1.50929 6.68984 4.13087 4.08382C6.75245 1.4778 10.299 0.0101234 13.9992 0Z" fill="#8AC643"/>
<path d="M8.09963 12.8255C8.2801 12.8156 8.46055 12.8454 8.62817 12.9129C8.79579 12.9804 8.94648 13.0838 9.06955 13.216C10.0589 14.2065 11.0579 15.1874 12.0375 16.1844C12.2282 16.3812 12.3252 16.3747 12.516 16.1844C15.0572 13.6311 17.6059 11.0864 20.1622 8.55037C20.2982 8.39388 20.4736 8.27642 20.6702 8.2101C20.8669 8.14379 21.0777 8.13101 21.281 8.17309C21.4842 8.21517 21.6725 8.31058 21.8265 8.4495C21.9805 8.58841 22.0946 8.76579 22.157 8.96336C22.2315 9.16397 22.2458 9.38191 22.1982 9.5905C22.1505 9.7991 22.043 9.9893 21.8887 10.1378C21.5459 10.4992 21.1871 10.8444 20.8314 11.1961C18.3097 13.7171 15.7868 16.2349 13.2628 18.7495C12.5677 19.4432 11.9696 19.4432 11.2874 18.7495C9.9942 17.4589 8.69451 16.1607 7.38835 14.855C7.23473 14.7156 7.12105 14.538 7.05894 14.3402C6.99684 14.1425 6.98857 13.9318 7.03497 13.7299C7.08137 13.5279 7.18077 13.3419 7.32298 13.1909C7.46519 13.0399 7.64508 12.9294 7.84421 12.8707C7.92768 12.8474 8.01322 12.8323 8.09963 12.8255Z" fill="white"/>
</svg>
